<svg display="block" height="750" width="1234" xmlns="http://www.w3.org/2000/svg"><g stroke-linejoin="round" stroke-miterlimit="1"><path d="m347 822-193-16-167 5z" fill="#bbbab9" stroke="#bbbab9"/><path d="m347 822-360-11-107 11z" fill="#babab8" stroke="#babab8"/><path d="m618-75h-285l103 3z" fill="#f5d1ff" stroke="#f5d1ff"/><path d="m1018-66-159-9 28 6z" fill="#ffd0de" stroke="#ffd0de"/><path d="m1138 753-100 15-82 50z" fill="#bdb6b7" stroke="#bdb6b7"/><path d="m1217-72-358-3 159 9z" fill="#f5cbd4" stroke="#f5cbd4"/><path d="m1217-72-199 6 107 7z" fill="#e3c5cb" stroke="#e3c5cb"/><path d="m1235 774-97-21-182 65z" fill="#bcb6b6" stroke="#bcb6b6"/><path d="m1332 542-45 55 35 21z" fill="#beb6b7" stroke="#beb6b7"/><path d="m1349 173-6-66-72 56z" fill="#ccbbbe" stroke="#ccbbbe"/><path d="m1357 509-71-56 46 89z" fill="#c1b7b8" stroke="#c1b7b8"/><path d="m1357 509-35 109 18 44z" fill="#bdb6b6" stroke="#bdb6b6"/><path d="m1357 509-25 33-10 76z" fill="#bfb6b7" stroke="#bfb6b7"/><path d="m1357 464-71-11 71 56z" fill="#c1b7b8" stroke="#c1b7b8"/><path d="m1357 464-45-91-26 80z" fill="#c3b8b9" stroke="#c3b8b9"/><path d="m1357 822-122-48-279 44z" fill="#bbb5b5" stroke="#bbb5b5"/><path d="m1357 822-401-4-22 4z" fill="#bcb5b6" stroke="#bcb5b6"/><path d="m1357 822-57-81-65 33z" fill="#bab4b4" stroke="#bab4b4"/><path d="m1357 739-57 2 57 81z" fill="#b9b4b3" stroke="#b9b4b3"/><path d="m1357 739-17-77-40 79z" fill="#bab5b4" stroke="#bab5b4"/><path d="m1357 739v-230l-17 153z" fill="#bcb5b5" stroke="#bcb5b5"/><path d="m1357-19-54 55 31 36z" fill="#cbbbbd" stroke="#cbbbbd"/><path d="m1357-19-25-4-29 59z" fill="#cbbbbd" stroke="#cbbbbd"/><path d="m1357 374-45-1 45 91z" fill="#c3b8b9" stroke="#c3b8b9"/><path d="m1357 244-118 16 18 56z" fill="#cbbbbe" stroke="#cbbbbe"/><path d="m1357 244-28-39-79 19z" fill="#cbbbbd" stroke="#cbbbbd"/><path d="m1357 244-107-20-11 36z" fill="#cdbcbe" stroke="#cdbcbe"/><path d="m1357 244-45 129 45 1z" fill="#c5b9ba" stroke="#c5b9ba"/><path d="m1357 244-100 72 55 57z" fill="#c8babc" stroke="#c8babc"/><path d="m1357 244-8-71-20 32z" fill="#c9babc" stroke="#c9babc"/><path d="m1357-75h-498l358 3z" fill="#dec3c8" stroke="#dec3c8"/><path d="m1357-75-91 55 66-3z" fill="#cbbbbd" stroke="#cbbbbd"/><path d="m1357-75-140 3 49 52z" fill="#cebcbf" stroke="#cebcbf"/><path d="m1357 86v-105l-23 91z" fill="#cababc" stroke="#cababc"/><path d="m1357 86-23-14 9 35z" fill="#cabbbd" stroke="#cabbbd"/><path d="m1357 86-14 21 6 66z" fill="#c9babc" stroke="#c9babc"/><path d="m1357 86-8 87 8 71z" fill="#c9babc" stroke="#c9babc"/><path d="m1357-20v-55l-25 52z" fill="#c8babc" stroke="#c8babc"/><path d="m1357-20-25-3 25 4z" fill="#c9babc" stroke="#c9babc"/><path d="m1340 662-18-44-15 31z" fill="#bcb5b6" stroke="#bcb5b6"/><path d="m1340 662-33-13-7 92z" fill="#bcb5b5" stroke="#bcb5b5"/><path d="m1349 173-78-10 58 42z" fill="#cbbbbe" stroke="#cbbbbe"/><path d="m1343 107-9-35-63 91z" fill="#cdbcbe" stroke="#cdbcbe"/><path d="m1303 36-99 55 67 72z" fill="#d3bec2" stroke="#d3bec2"/><path d="m1307 649-60 16 53 76z" fill="#bcb5b5" stroke="#bcb5b5"/><path d="m1312 373-55-57 10 50z" fill="#c8babc" stroke="#c8babc"/><path d="m1332 542-46-89-72 42z" fill="#c2b8b9" stroke="#c2b8b9"/><path d="m1332-23-66 3 37 56z" fill="#cdbcbf" stroke="#cdbcbf"/><path d="m1334 72-31-36-32 127z" fill="#cebcbf" stroke="#cebcbf"/><path d="m1332 542-118-47 73 102z" fill="#c1b7b8" stroke="#c1b7b8"/><path d="m1329 205-58-42-21 61z" fill="#cebcbf" stroke="#cebcbf"/><path d="m1312 373-45-7 19 87z" fill="#c6b9bb" stroke="#c6b9bb"/><path d="m1322 618-35-21 20 52z" fill="#bdb6b6" stroke="#bdb6b6"/><path d="m1303 36-62-18-37 73z" fill="#d4bfc2" stroke="#d4bfc2"/><path d="m1303 36-37-56-25 38z" fill="#d1bdc1" stroke="#d1bdc1"/><path d="m1307 649-20-52-40 68z" fill="#beb6b6" stroke="#beb6b6"/><path d="m1300 741-53-76-12 109z" fill="#bcb5b5" stroke="#bcb5b5"/><path d="m1271 163-67-72 33 83z" fill="#d5bfc3" stroke="#d5bfc3"/><path d="m1271 163-34 11 13 50z" fill="#d2bec1" stroke="#d2bec1"/><path d="m1286 453-19-87-89 23z" fill="#c8babc" stroke="#c8babc"/><path d="m1286 453-108-64 36 106z" fill="#c7babc" stroke="#c7babc"/><path d="m1287 597-124 59 84 9z" fill="#bfb6b7" stroke="#bfb6b7"/><path d="m1287 597-73-102-51 161z" fill="#c1b7b9" stroke="#c1b7b9"/><path d="m1214 495-105 69 54 92z" fill="#c3b8ba" stroke="#c3b8ba"/><path d="m1247 665-84-9 72 118z" fill="#bdb6b6" stroke="#bdb6b6"/><path d="m1267 366-10-50-79 73z" fill="#cbbbbe" stroke="#cbbbbe"/><path d="m1266-20-49-52 24 90z" fill="#d3bec2" stroke="#d3bec2"/><path d="m1235 774-72-118-25 97z" fill="#bdb6b6" stroke="#bdb6b6"/><path d="m1257 316-18-56-61 129z" fill="#cebcbf" stroke="#cebcbf"/><path d="m1239 260-122-24 61 153z" fill="#d4bec3" stroke="#d4bec3"/><path d="m1241 18-24-90-91 55z" fill="#dac1c6" stroke="#dac1c6"/><path d="m1250 224-95-28 84 64z" fill="#d5bfc3" stroke="#d5bfc3"/><path d="m1250 224-13-50-82 22z" fill="#d6bfc4" stroke="#d6bfc4"/><path d="m1237 174-33-83-58 84z" fill="#dcc2c6" stroke="#dcc2c6"/><path d="m1241 18-89 45 52 28z" fill="#dcc2c7" stroke="#dcc2c7"/><path d="m1241 18-115-35 26 80z" fill="#e1c4c9" stroke="#e1c4c9"/><path d="m1239 260-84-64-38 40z" fill="#dac1c6" stroke="#dac1c6"/><path d="m1214 495-36-106-50 82z" fill="#c9babd" stroke="#c9babd"/><path d="m1237 174-91 1 9 21z" fill="#ddc2c7" stroke="#ddc2c7"/><path d="m1125-59-107-7 17 7z" fill="#f1cad2" stroke="#f1cad2"/><path d="m1214 495-86-24-19 93z" fill="#c7babc" stroke="#c7babc"/><path d="m1217-72-92 13 1 42z" fill="#dfc3c8" stroke="#dfc3c8"/><path d="m1178 389-61-153-77 105z" fill="#d8c0c5" stroke="#d8c0c5"/><path d="m1204 91-52-28-6 112z" fill="#e3c5ca" stroke="#e3c5ca"/><path d="m1117 236-49 10-28 95z" fill="#e3c4cb" stroke="#e3c4cb"/><path d="m1128 471-41 34 22 59z" fill="#c8babd" stroke="#c8babd"/><path d="m1178 389-138-48 88 130z" fill="#d0bdc2" stroke="#d0bdc2"/><path d="m1152 63-109 30 103 82z" fill="#f3cbd2" stroke="#f3cbd2"/><path d="m1163 656-126 21 101 76z" fill="#bfb7b8" stroke="#bfb7b8"/><path d="m1163 656-104-18-22 39z" fill="#c1b8ba" stroke="#c1b8ba"/><path d="m1163 656-54-92-50 74z" fill="#c2b8ba" stroke="#c2b8ba"/><path d="m1138 753-101-76-7 34z" fill="#bfb7b8" stroke="#bfb7b8"/><path d="m1152 63-26-80-83 110z" fill="#f6ccd3" stroke="#f6ccd3"/><path d="m1155 196-9-21-29 61z" fill="#e2c4ca" stroke="#e2c4ca"/><path d="m1146 175-92 52 63 9z" fill="#e8c6cd" stroke="#e8c6cd"/><path d="m1146 175-103-82 11 134z" fill="#f9cdd4" stroke="#f9cdd4"/><path d="m1109 564-31-1-19 75z" fill="#c4b9bc" stroke="#c4b9bc"/><path d="m1126-17-102-10 19 120z" fill="#ffd2da" stroke="#ffd2da"/><path d="m1128 471-88-130 47 164z" fill="#cebdc1" stroke="#cebdc1"/><path d="m1138 753-108-42 8 57z" fill="#beb7b8" stroke="#beb7b8"/><path d="m1043 93-19-120 3 113z" fill="#ffe2eb" stroke="#ffe2eb"/><path d="m1126-17-1-42h-90z" fill="#ecc8cf" stroke="#ecc8cf"/><path d="m1087 505-47-164-88 117z" fill="#d1bec3" stroke="#d1bec3"/><path d="m1109 564-22-59-9 58z" fill="#c7babd" stroke="#c7babd"/><path d="m1126-17-91-42-11 32z" fill="#f8cdd5" stroke="#f8cdd5"/><path d="m1117 236-63-9 14 19z" fill="#e9c7ce" stroke="#e9c7ce"/><path d="m1054 227-11-134-34 12z" fill="#ffd9e3" stroke="#ffd9e3"/><path d="m1087 505-135-47 39 61z" fill="#ccbcc1" stroke="#ccbcc1"/><path d="m618 822-139-2-11 2z" fill="#beb9ba" stroke="#beb9ba"/><path d="m1027 86-3-113-28 101z" fill="#ffe9f2" stroke="#ffe9f2"/><path d="m1040 341-83 28-5 89z" fill="#d8c0c8" stroke="#d8c0c8"/><path d="m1054 227-45-122-30 100z" fill="#ffd5e0" stroke="#ffd5e0"/><path d="m1087 505-96 14 87 44z" fill="#c9bbbe" stroke="#c9bbbe"/><path d="m1059 638-68-119-43 103z" fill="#c6babd" stroke="#c6babd"/><path d="m1068 246-92 14 64 81z" fill="#e8c6ce" stroke="#e8c6ce"/><path d="m1078 563-87-44 68 119z" fill="#c6babd" stroke="#c6babd"/><path d="m1068 246-14-19-78 33z" fill="#f1c9d2" stroke="#f1c9d2"/><path d="m1059 638-111-16 89 55z" fill="#c3b9bb" stroke="#c3b9bb"/><path d="m1038 768-80 17-2 33z" fill="#beb7b8" stroke="#beb7b8"/><path d="m1054 227-75-22-3 55z" fill="#fbcdd7" stroke="#fbcdd7"/><path d="m618-75-182 3 83 7z" fill="#f1cdff" stroke="#f1cdff"/><path d="m1035-59-22 22 11 10z" fill="#ffd0da" stroke="#ffd0da"/><path d="m1037 677-89-55 37 78z" fill="#c2b9bb" stroke="#c2b9bb"/><path d="m1038 768-8-57-45-11z" fill="#bfb7b9" stroke="#bfb7b9"/><path d="m1040 341-64-81-19 109z" fill="#e3c4cd" stroke="#e3c4cd"/><path d="m1043 93-16-7-18 19z" fill="#ffe7ef" stroke="#ffe7ef"/><path d="m1038 768-53-68-27 85z" fill="#bfb7b9" stroke="#bfb7b9"/><path d="m1037 677-52 23 45 11z" fill="#c1b8ba" stroke="#c1b8ba"/><path d="m1024-27-11-10-17 111z" fill="#ffdde7" stroke="#ffdde7"/><path d="m1035-59-17-7-5 29z" fill="#fdcfd8" stroke="#fdcfd8"/><path d="m1013-37-114 18 97 93z" fill="#ffe7f5" stroke="#ffe7f5"/><path d="m1027 86-31-12 13 31z" fill="#fff3fc" stroke="#fff3fc"/><path d="m1018-66-131-3 126 32z" fill="#ffd1dd" stroke="#ffd1dd"/><path d="m1009 105-82 111 52-11z" fill="#ffdcea" stroke="#ffdcea"/><path d="m1013-37-126-32 12 50z" fill="#ffd6e5" stroke="#ffd6e5"/><path d="m985 700-62 41 35 44z" fill="#c0b8b9" stroke="#c0b8b9"/><path d="m1009 105-111 106 29 5z" fill="#ffdced" stroke="#ffdced"/><path d="m1009 105-13-31-133-19z" fill="#fff" stroke="#fff"/><path d="m1009 105-146-50 35 156z" fill="#fff7ff" stroke="#fff7ff"/><path d="m898 211-35-156-19 121z" fill="#ffdaf8" stroke="#ffdaf8"/><path d="m991 519-113 13 70 90z" fill="#c9bbc0" stroke="#c9bbc0"/><path d="m996 74-97-93-36 74z" fill="#fff7ff" stroke="#fff7ff"/><path d="m976 260-122 56 103 53z" fill="#e8c5d0" stroke="#e8c5d0"/><path d="m979 205-52 11 49 44z" fill="#ffcfdc" stroke="#ffcfdc"/><path d="m991 519-39-61-74 74z" fill="#cdbdc3" stroke="#cdbdc3"/><path d="m976 260-123 23 1 33z" fill="#efc8d5" stroke="#efc8d5"/><path d="m985 700-37-78-34 106z" fill="#c2b9bb" stroke="#c2b9bb"/><path d="m985 700-71 28 9 13z" fill="#c1b8ba" stroke="#c1b8ba"/><path d="m976 260-49-44-74 67z" fill="#fbcbd9" stroke="#fbcbd9"/><path d="m927 216-49 8-25 59z" fill="#fcd" stroke="#fcd"/><path d="m948 622-81 104 47 2z" fill="#c2b9bc" stroke="#c2b9bc"/><path d="m957 369-133 43 128 46z" fill="#d7c0c9" stroke="#d7c0c9"/><path d="m958 785-75 22 51 15z" fill="#beb7b8" stroke="#beb7b8"/><path d="m958 785-35-44-40 66z" fill="#bfb7b9" stroke="#bfb7b9"/><path d="m958 785-24 37 22-4z" fill="#bdb7b8" stroke="#bdb7b8"/><path d="m957 369-103-53-17 20z" fill="#e3c4d0" stroke="#e3c4d0"/><path d="m957 369-120-33-13 76z" fill="#ddc2cd" stroke="#ddc2cd"/><path d="m952 458-137 34 63 40z" fill="#cfbec5" stroke="#cfbec5"/><path d="m952 458-128-46-9 80z" fill="#d3bfc7" stroke="#d3bfc7"/><path d="m878 532-63-40 23 27z" fill="#cebdc4" stroke="#cebdc4"/><path d="m934 822-51-15-23 15z" fill="#bdb7b8" stroke="#bdb7b8"/><path d="m948 622-70-90-11 194z" fill="#c6babe" stroke="#c6babe"/><path d="m878 532-104 172 93 22z" fill="#c5babe" stroke="#c5babe"/><path d="m927 216-29-5-20 13z" fill="#ffd0e1" stroke="#ffd0e1"/><path d="m863 55-37 110 18 11z" fill="#ffd7f7" stroke="#ffd7f7"/><path d="m878 532-40-13-64 185z" fill="#c9bcc1" stroke="#c9bcc1"/><path d="m923 741-9-13-47-2z" fill="#c1b8ba" stroke="#c1b8ba"/><path d="m923 741-56-15 16 81z" fill="#c0b8ba" stroke="#c0b8ba"/><path d="m898 211-54-35 1 8z" fill="#ffd2e8" stroke="#ffd2e8"/><path d="m878 224-36 35 11 24z" fill="#f7cada" stroke="#f7cada"/><path d="m898 211-53-27 33 40z" fill="#ffd0e4" stroke="#ffd0e4"/><path d="m899-19-12-50-28-6z" fill="#ffd1e2" stroke="#ffd1e2"/><path d="m899-19-40-56 4 130z" fill="#ffd7ed" stroke="#ffd7ed"/><path d="m838 519-17-6-47 191z" fill="#c9bcc2" stroke="#c9bcc2"/><path d="m867 726-63 96h56z" fill="#bfb8b9" stroke="#bfb8b9"/><path d="m883 807-16-81-7 96z" fill="#bfb8b9" stroke="#bfb8b9"/><path d="m863 55-4-130-175 130z" fill="#ffd0ea" stroke="#ffd0ea"/><path d="m878 224-33-40-3 75z" fill="#ffcde0" stroke="#ffcde0"/><path d="m821 513-110 173 63 18z" fill="#c6bbc0" stroke="#c6bbc0"/><path d="m821 513-134 150 24 23z" fill="#c7bcc1" stroke="#c7bcc1"/><path d="m859-75-204 54 29 76z" fill="#f8cbe6" stroke="#f8cbe6"/><path d="m863 55h-179l142 110z" fill="#ffd1ee" stroke="#ffd1ee"/><path d="m867 726-93-22 30 118z" fill="#c0b8bb" stroke="#c0b8bb"/><path d="m824 412-35 61 26 19z" fill="#d2bfc8" stroke="#d2bfc8"/><path d="m845 184-60 6 57 69z" fill="#ffcde1" stroke="#ffcde1"/><path d="m859-75h-232l21 40z" fill="#efcae3" stroke="#efcae3"/><path d="m837 336-37 2 24 74z" fill="#dec3cf" stroke="#dec3cf"/><path d="m842 259-57-69 1 63z" fill="#f8cade" stroke="#f8cade"/><path d="m859-75-211 40 7 14z" fill="#f2cae4" stroke="#f2cae4"/><path d="m838 519-23-27 6 21z" fill="#cebec5" stroke="#cebec5"/><path d="m853 283-53 55 37-2z" fill="#e6c5d3" stroke="#e6c5d3"/><path d="m853 283-67-30 14 85z" fill="#ebc7d7" stroke="#ebc7d7"/><path d="m854 316-1-33-16 53z" fill="#e8c6d4" stroke="#e8c6d4"/><path d="m853 283-11-24-56-6z" fill="#f2c8da" stroke="#f2c8da"/><path d="m800 338-14-85-24 38z" fill="#e8c6d7" stroke="#e8c6d7"/><path d="m826 165-142-110 101 135z" fill="#ffcde8" stroke="#ffcde8"/><path d="m845 184-1-8-18-11z" fill="#ffd1e9" stroke="#ffd1e9"/><path d="m845 184-19-19-41 25z" fill="#ffcfe7" stroke="#ffcfe7"/><path d="m804 822-30-118-34 11z" fill="#c1b9bb" stroke="#c1b9bb"/><path d="m804 822-64-107-22 24z" fill="#c0b9bb" stroke="#c0b9bb"/><path d="m821 513-187-9 53 159z" fill="#cabdc4" stroke="#cabdc4"/><path d="m821 513-164-34-23 25z" fill="#cfbfc8" stroke="#cfbfc8"/><path d="m821 513-32-40-132 6z" fill="#d0bfc8" stroke="#d0bfc8"/><path d="m824 412-24-74-87 92z" fill="#d9c2ce" stroke="#d9c2ce"/><path d="m824 412-111 18 76 43z" fill="#d4c0cb" stroke="#d4c0cb"/><path d="m821 513-6-21-26-19z" fill="#cfbec6" stroke="#cfbec6"/><path d="m785 190-101-135-26 102z" fill="#f9cbe9" stroke="#f9cbe9"/><path d="m804 822-86-83-23 83z" fill="#bfb8ba" stroke="#bfb8ba"/><path d="m786 253-1-63-28 72z" fill="#f3c9de" stroke="#f3c9de"/><path d="m800 338-38-47-49 139z" fill="#dec3d2" stroke="#dec3d2"/><path d="m762 291-96 4 47 135z" fill="#dec4d5" stroke="#dec4d5"/><path d="m786 253-29 9 5 29z" fill="#ecc7da" stroke="#ecc7da"/><path d="m789 473-76-43-56 49z" fill="#d2c0cb" stroke="#d2c0cb"/><path d="m687 663-53-159-18 111z" fill="#c8bdc4" stroke="#c8bdc4"/><path d="m713 430-47-135-28 68z" fill="#dbc3d5" stroke="#dbc3d5"/><path d="m785 190-138 18 110 54z" fill="#f0c9e1" stroke="#f0c9e1"/><path d="m785 190-127-33-11 51z" fill="#f2c9e6" stroke="#f2c9e6"/><path d="m757 262-110-54 94 63z" fill="#ebc7df" stroke="#ebc7df"/><path d="m774 704-63-18 29 29z" fill="#c3babd" stroke="#c3babd"/><path d="m762 291-21-20-64 11z" fill="#e7c6da" stroke="#e7c6da"/><path d="m762 291-85-9-11 13z" fill="#e4c6db" stroke="#e4c6db"/><path d="m762 291-5-29-16 9z" fill="#eac7da" stroke="#eac7da"/><path d="m741 271-94-63 30 74z" fill="#e8c7df" stroke="#e8c7df"/><path d="m718 739-45 2 22 81z" fill="#c0b9bb" stroke="#c0b9bb"/><path d="m740 715-29-29-13 20z" fill="#c3babe" stroke="#c3babe"/><path d="m740 715-42-9 20 33z" fill="#c2babd" stroke="#c2babd"/><path d="m718 739-20-33-25 35z" fill="#c1babd" stroke="#c1babd"/><path d="m713 430-83-62 27 111z" fill="#d4c1cf" stroke="#d4c1cf"/><path d="m713 430-75-67-8 5z" fill="#d8c3d3" stroke="#d8c3d3"/><path d="m711 686-24-23 11 43z" fill="#c3babf" stroke="#c3babf"/><path d="m684 55-103 40 77 62z" fill="#f5caf4" stroke="#f5caf4"/><path d="m695 822-22-81-55 81z" fill="#bfb9bb" stroke="#bfb9bb"/><path d="m698 706-59-4 34 39z" fill="#c2babe" stroke="#c2babe"/><path d="m698 706-56-14-3 10z" fill="#c3babe" stroke="#c3babe"/><path d="m698 706-11-43-45 29z" fill="#c3bbbf" stroke="#c3bbbf"/><path d="m618-75-99 10 79-1z" fill="#edcbf5" stroke="#edcbf5"/><path d="m652 290-5-82-9 80z" fill="#e6c7e2" stroke="#e6c7e2"/><path d="m677 282-30-74 5 82z" fill="#e6c7e1" stroke="#e6c7e1"/><path d="m684 55-29-76-35-3z" fill="#f3caf0" stroke="#f3caf0"/><path d="m687 663-71-48 26 77z" fill="#c5bbc0" stroke="#c5bbc0"/><path d="m684 55-64-79-39 119z" fill="#f5cbf8" stroke="#f5cbf8"/><path d="m634 504-57 82 39 29z" fill="#c9bec5" stroke="#c9bec5"/><path d="m652 290-14-2v75z" fill="#e0c5db" stroke="#e0c5db"/><path d="m666 295-14-5-14 73z" fill="#e0c5db" stroke="#e0c5db"/><path d="m677 282-25 8 14 5z" fill="#e3c6dd" stroke="#e3c6dd"/><path d="m657 479-27-111-70 105z" fill="#d3c1cf" stroke="#d3c1cf"/><path d="m673 741-34-39-66 18z" fill="#c2babe" stroke="#c2babe"/><path d="m673 741-100-21 45 102z" fill="#c0babc" stroke="#c0babc"/><path d="m618 822-45-102-18 35z" fill="#c0babc" stroke="#c0babc"/><path d="m630 368-90 25 20 80z" fill="#d5c3d3" stroke="#d5c3d3"/><path d="m638 288-8 80 8-5z" fill="#ddc4d9" stroke="#ddc4d9"/><path d="m647 208-77 44 68 36z" fill="#e7c7e6" stroke="#e7c7e6"/><path d="m647 208-73 13-4 31z" fill="#eac8ed" stroke="#eac8ed"/><path d="m657 479-97-6 74 31z" fill="#cfc0cb" stroke="#cfc0cb"/><path d="m658 157-74 42 63 9z" fill="#eec9ee" stroke="#eec9ee"/><path d="m658 157-97 8 23 34z" fill="#f0c9f6" stroke="#f0c9f6"/><path d="m658 157-77-62-20 70z" fill="#f4cafc" stroke="#f4cafc"/><path d="m642 692-26-77-26 7z" fill="#c5bcc1" stroke="#c5bcc1"/><path d="m655-21-7-14-28 11z" fill="#f0caef" stroke="#f0caef"/><path d="m648-35-21-40-7 51z" fill="#eecaef" stroke="#eecaef"/><path d="m620-24-88 15 49 104z" fill="#f9ccff" stroke="#f9ccff"/><path d="m627-75h-9l2 51z" fill="#edcaee" stroke="#edcaee"/><path d="m638 288-85-10 77 90z" fill="#dfc5de" stroke="#dfc5de"/><path d="m639 702-65 14-1 4z" fill="#c2bbbe" stroke="#c2bbbe"/><path d="m647 208-63-9-10 22z" fill="#ecc8ef" stroke="#ecc8ef"/><path d="m620-24-2-51-25 18z" fill="#eecaf2" stroke="#eecaf2"/><path d="m642 692-68 24 65-14z" fill="#c2bbbe" stroke="#c2bbbe"/><path d="m642 692-52-70-16 94z" fill="#c4bbc0" stroke="#c4bbc0"/><path d="m634 504-74-31 17 113z" fill="#ccbfc9" stroke="#ccbfc9"/><path d="m618-75-20 9-5 9z" fill="#edcaf1" stroke="#edcaf1"/><path d="m638 288-68-36-17 26z" fill="#e4c7e6" stroke="#e4c7e6"/><path d="m553 278-44 62 31 53z" fill="#dcc6de" stroke="#dcc6de"/><path d="m630 368-77-90-13 115z" fill="#dbc5db" stroke="#dbc5db"/><path d="m618 822-118-24-21 22z" fill="#beb9bb" stroke="#beb9bb"/><path d="m616 615-39-29 13 36z" fill="#c7bdc3" stroke="#c7bdc3"/><path d="m620-24-27-33-61 48z" fill="#f2cbfc" stroke="#f2cbfc"/><path d="m618 822-63-67-55 43z" fill="#bfb9bb" stroke="#bfb9bb"/><path d="m577 586-17-113-61 76z" fill="#cbbfc8" stroke="#cbbfc8"/><path d="m581 95-30 12 10 58z" fill="#facbff" stroke="#facbff"/><path d="m581 95-49-104 19 116z" fill="#fcf" stroke="#fcf"/><path d="m584 199-7 4-3 18z" fill="#edc9f4" stroke="#edc9f4"/><path d="m590 622-85 74 69 20z" fill="#c3bcc0" stroke="#c3bcc0"/><path d="m598-66-79 1 74 8z" fill="#efcbf8" stroke="#efcbf8"/><path d="m593-57-74-8 13 56z" fill="#f4ccff" stroke="#f4ccff"/><path d="m584 199-23-34 16 38z" fill="#f0c9f9" stroke="#f0c9f9"/><path d="m590 622-13-36-100 29z" fill="#c7bdc4" stroke="#c7bdc4"/><path d="m590 622-113-7 28 81z" fill="#c5bdc2" stroke="#c5bdc2"/><path d="m561 165-10-58-30 25z" fill="#fccbff" stroke="#fccbff"/><path d="m577 586-78-37-22 66z" fill="#c8bec5" stroke="#c8bec5"/><path d="m577 203-55 8 52 10z" fill="#edc9f7" stroke="#edc9f7"/><path d="m577 203-16-38-39 46z" fill="#f0cafd" stroke="#f0cafd"/><path d="m574 221-52-10 48 41z" fill="#ebc9f3" stroke="#ebc9f3"/><path d="m574 716-69-20 68 24z" fill="#c2bbbf" stroke="#c2bbbf"/><path d="m573 720-68-24 50 59z" fill="#c1bbbe" stroke="#c1bbbe"/><path d="m551 107-19-116-110 55z" fill="#ffcfff" stroke="#ffcfff"/><path d="m570 252-48-41 31 67z" fill="#e8c8ef" stroke="#e8c8ef"/><path d="m551 107-129-61 99 86z" fill="#ffceff" stroke="#ffceff"/><path d="m555 755-50-59-13 64z" fill="#c1bbbd" stroke="#c1bbbd"/><path d="m560 473-20-80-75 92z" fill="#d1c2d0" stroke="#d1c2d0"/><path d="m560 473-95 12 34 64z" fill="#cdc1cb" stroke="#cdc1cb"/><path d="m561 165-68-4 29 50z" fill="#f6cbff" stroke="#f6cbff"/><path d="m561 165-40-33-28 29z" fill="#fcccff" stroke="#fcccff"/><path d="m555 755-63 5 8 38z" fill="#bfbabc" stroke="#bfbabc"/><path d="m553 278-31-67-89 86z" fill="#e6c9f0" stroke="#e6c9f0"/><path d="m553 278-120 19 76 43z" fill="#e0c8e6" stroke="#e0c8e6"/><path d="m509 340-76-43 16 30z" fill="#ddc8e4" stroke="#ddc8e4"/><path d="m522 211-70-7-19 93z" fill="#eccbfc" stroke="#eccbfc"/><path d="m522 211-29-50-6 19z" fill="#f8ccff" stroke="#f8ccff"/><path d="m540 393-31-53-94 52z" fill="#d7c5da" stroke="#d7c5da"/><path d="m540 393-125-1 50 93z" fill="#d3c4d3" stroke="#d3c4d3"/><path d="m347 822-101-24-92 8z" fill="#bcbaba" stroke="#bcbaba"/><path d="m532-9-92-43-30 68z" fill="#ffd1ff" stroke="#ffd1ff"/><path d="m532-9-122 25 12 30z" fill="#ffd2ff" stroke="#ffd2ff"/><path d="m532-9-13-56-79 13z" fill="#fbcfff" stroke="#fbcfff"/><path d="m509 340-60-13-34 65z" fill="#d9c7de" stroke="#d9c7de"/><path d="m521 132-99-86 71 115z" fill="#ffcfff" stroke="#ffcfff"/><path d="m522 211-35-31-35 24z" fill="#f5ccff" stroke="#f5ccff"/><path d="m519-65-83-7 4 20z" fill="#f8d1ff" stroke="#f8d1ff"/><path d="m493 161-71-115-53 47z" fill="#ffd2ff" stroke="#ffd2ff"/><path d="m505 696-86 70 73-6z" fill="#c0bbbd" stroke="#c0bbbd"/><path d="m505 696-114 17 28 53z" fill="#c1bbbe" stroke="#c1bbbe"/><path d="m505 696-28-81-52 22z" fill="#c4bdc2" stroke="#c4bdc2"/><path d="m505 696-80-59-34 76z" fill="#c2bcc0" stroke="#c2bcc0"/><path d="m449 327-16-30 3 16z" fill="#dec9e6" stroke="#dec9e6"/><path d="m499 549-87-24 65 90z" fill="#c8bfc7" stroke="#c8bfc7"/><path d="m499 549-34-64-53 40z" fill="#cbc1ca" stroke="#cbc1ca"/><path d="m500 798-8-38-24 62z" fill="#bebabb" stroke="#bebabb"/><path d="m500 798-32 24 11-2z" fill="#beb9bb" stroke="#beb9bb"/><path d="m492 760-73 6 49 56z" fill="#bfbabc" stroke="#bfbabc"/><path d="m493 161-41 43 35-24z" fill="#fbcdff" stroke="#fbcdff"/><path d="m493 161-124-68 83 111z" fill="#ffd0ff" stroke="#ffd0ff"/><path d="m477 615-65-90 13 112z" fill="#c7bfc5" stroke="#c7bfc5"/><path d="m452 204-83-111 31 124z" fill="#ffd1ff" stroke="#ffd1ff"/><path d="m452 204-52 13 33 80z" fill="#ebcdfd" stroke="#ebcdfd"/><path d="m468 822-49-56 3 56z" fill="#bebabb" stroke="#bebabb"/><path d="m465 485-50-93-3 133z" fill="#cec3cf" stroke="#cec3cf"/><path d="m422 46-12-30v11z" fill="#ffd5ff" stroke="#ffd5ff"/><path d="m425 637-13-112-47 14z" fill="#c7c0c6" stroke="#c7c0c6"/><path d="m425 637-60-98 22 102z" fill="#c5bfc4" stroke="#c5bfc4"/><path d="m436-72-103-3 34 21z" fill="#f5d9ff" stroke="#f5d9ff"/><path d="m440-52-4-20-1 15z" fill="#fad3ff" stroke="#fad3ff"/><path d="m449 327-52-3 18 68z" fill="#d9c8df" stroke="#d9c8df"/><path d="m425 637-38 4 4 72z" fill="#c3bdc1" stroke="#c3bdc1"/><path d="m440-52-5-5-25 73z" fill="#ffd4ff" stroke="#ffd4ff"/><path d="m449 327-13-14-39 11z" fill="#ddc9e4" stroke="#ddc9e4"/><path d="m400 217-31-124-12 125z" fill="#fad3ff" stroke="#fad3ff"/><path d="m415 392-50 147 47-14z" fill="#ccc3cd" stroke="#ccc3cd"/><path d="m419 766-28-53-9 22z" fill="#c0bbbd" stroke="#c0bbbd"/><path d="m422 822-3-56-30 19z" fill="#bebabb" stroke="#bebabb"/><path d="m433 297-33-80-47 37z" fill="#e7cdf5" stroke="#e7cdf5"/><path d="m435-57-68 3 43 70z" fill="#ffd6ff" stroke="#ffd6ff"/><path d="m415 392-54-29 4 176z" fill="#d0c5d2" stroke="#d0c5d2"/><path d="m433 297-80-43 44 70z" fill="#e0ccea" stroke="#e0ccea"/><path d="m436 313-3-16-36 27z" fill="#decae6" stroke="#decae6"/><path d="m365 539-4-176-67 16z" fill="#d0c6d1" stroke="#d0c6d1"/><path d="m436-72-69 18 68-3z" fill="#fad5ff" stroke="#fad5ff"/><path d="m415 392-18-68-36 35z" fill="#d7c8dc" stroke="#d7c8dc"/><path d="m419 766-37-31 8 27z" fill="#bfbbbd" stroke="#bfbbbd"/><path d="m365 539-71-160-44 67z" fill="#cdc6ce" stroke="#cdc6ce"/><path d="m415 392-54-33v4z" fill="#d6c8da" stroke="#d6c8da"/><path d="m212-75h-262l54 17z" fill="#f6ffe5" stroke="#f6ffe5"/><path d="m422 46-12-19-41 66z" fill="#ffd6ff" stroke="#ffd6ff"/><path d="m422 822-33-37-42 37z" fill="#bdbabb" stroke="#bdbabb"/><path d="m419 766-29-4-1 23z" fill="#bfbabc" stroke="#bfbabc"/><path d="m410 27-74 13 33 53z" fill="#ffdaff" stroke="#ffdaff"/><path d="m410 16-43-70-33 67z" fill="#ffdbff" stroke="#ffdbff"/><path d="m410 16-76-3 76 14z" fill="#ffd9ff" stroke="#ffd9ff"/><path d="m410 27-76-14 2 27z" fill="#ffdcff" stroke="#ffdcff"/><path d="m387 641-22-102-44 105z" fill="#c5bfc3" stroke="#c5bfc3"/><path d="m391 713-4-72-66 3z" fill="#c2bdc0" stroke="#c2bdc0"/><path d="m400 217-43 1-4 36z" fill="#ebd0fc" stroke="#ebd0fc"/><path d="m369 93-46 132 34-7z" fill="#f5d5ff" stroke="#f5d5ff"/><path d="m397 324-44-70 8 105z" fill="#dccbe4" stroke="#dccbe4"/><path d="m391 713-70-69 61 91z" fill="#c1bcbf" stroke="#c1bcbf"/><path d="m390 762-43 60 42-37z" fill="#bebabb" stroke="#bebabb"/><path d="m390 762-8-27-35 87z" fill="#bebbbc" stroke="#bebbbc"/><path d="m361 359-8-105-80 76z" fill="#dacde1" stroke="#dacde1"/><path d="m382 735-119 36 84 51z" fill="#bebbbb" stroke="#bebbbb"/><path d="m369 93-54-33 8 165z" fill="#ffdaff" stroke="#ffdaff"/><path d="m382 735-61-91-63 23z" fill="#c1bdbf" stroke="#c1bdbf"/><path d="m382 735-124-68 5 104z" fill="#bfbcbd" stroke="#bfbcbd"/><path d="m323 225-8-165-100 23z" fill="#f4e2ff" stroke="#f4e2ff"/><path d="m365 539-160 21 116 84z" fill="#c5c0c4" stroke="#c5c0c4"/><path d="m367-54-55 2 22 65z" fill="#fae0ff" stroke="#fae0ff"/><path d="m369 93-33-53-21 20z" fill="#fdf" stroke="#fdf"/><path d="m367-54-34-21-21 23z" fill="#f3dfff" stroke="#f3dfff"/><path d="m361 359-88-29 21 49z" fill="#d5cbd9" stroke="#d5cbd9"/><path d="m365 539-115-93-45 114z" fill="#c8c3c8" stroke="#c8c3c8"/><path d="m357 218-34 7 30 29z" fill="#e8d2f8" stroke="#e8d2f8"/><path d="m361 359-67 20 67-16z" fill="#d5c9d9" stroke="#d5c9d9"/><path d="m323 225-108-142-34 63z" fill="#eae5f4" stroke="#eae5f4"/><path d="m353 254-30-29-50 105z" fill="#e0d1ea" stroke="#e0d1ea"/><path d="m263 771-5-104-6 96z" fill="#bebcbc" stroke="#bebcbc"/><path d="m347 822-84-51-17 27z" fill="#bdbaba" stroke="#bdbaba"/><path d="m250 446-26 12-19 102z" fill="#c9c5c9" stroke="#c9c5c9"/><path d="m321 644-116-84 53 107z" fill="#c3bfc1" stroke="#c3bfc1"/><path d="m323 225-142-79 45 98z" fill="#e3dcec" stroke="#e3dcec"/><path d="m323 225-97 19 47 86z" fill="#ddd3e5" stroke="#ddd3e5"/><path d="m334 13-22-65-31 11z" fill="#f6e5ff" stroke="#f6e5ff"/><path d="m336 40-2-27-19 47z" fill="#ffe1ff" stroke="#ffe1ff"/><path d="m334 13-95 4 76 43z" fill="#fbe7ff" stroke="#fbe7ff"/><path d="m334 13-53-54-42 58z" fill="#f6ebff" stroke="#f6ebff"/><path d="m333-75h-36l15 23z" fill="#f0e3fe" stroke="#f0e3fe"/><path d="m315 60-76-43-3 11z" fill="#f5efff" stroke="#f5efff"/><path d="m315 60-79-32-21 55z" fill="#f4f0ff" stroke="#f4f0ff"/><path d="m273 330-47-86 12 81z" fill="#d8d2dd" stroke="#d8d2dd"/><path d="m312-52-15-23-16 34z" fill="#f0e7fe" stroke="#f0e7fe"/><path d="m297-75h-85l69 34z" fill="#edeff5" stroke="#edeff5"/><path d="m294 379-21-49-35-5z" fill="#d4cdd8" stroke="#d4cdd8"/><path d="m294 379-56-54 12 121z" fill="#d1cad3" stroke="#d1cad3"/><path d="m238 325-63 13-19 71z" fill="#d0ced2" stroke="#d0ced2"/><path d="m250 446-12-121-82 84z" fill="#cecbd0" stroke="#cecbd0"/><path d="m258 667-55 81 49 15z" fill="#bebcbd" stroke="#bebcbd"/><path d="m281-41-69-34 27 92z" fill="#f0f7f7" stroke="#f0f7f7"/><path d="m250 446-94-37 68 49z" fill="#cbc8cc" stroke="#cbc8cc"/><path d="m238 325-12-81-33 25z" fill="#d9d5dd" stroke="#d9d5dd"/><path d="m239 17-27-92-40 56z" fill="#f2fff2" stroke="#f2fff2"/><path d="m258 667-53-107-94 75z" fill="#c2bfc0" stroke="#c2bfc0"/><path d="m263 771-11-8-6 35z" fill="#bdbbbb" stroke="#bdbbbb"/><path d="m258 667-147-32 92 113z" fill="#bfbdbe" stroke="#bfbdbe"/><path d="m252 763-49-15 43 50z" fill="#bdbbbb" stroke="#bdbbbb"/><path d="m154 806-76-19-91 24z" fill="#babab8" stroke="#babab8"/><path d="m246 798-43-50-49 58z" fill="#bcbbba" stroke="#bcbbba"/><path d="m212-75-208 17 119 37z" fill="#fdffed" stroke="#fdffed"/><path d="m224 458-92 18 73 84z" fill="#c7c5c7" stroke="#c7c5c7"/><path d="m236 28-65 20 44 35z" fill="#f2fff5" stroke="#f2fff5"/><path d="m238 325-45-56-18 69z" fill="#d5d2d7" stroke="#d5d2d7"/><path d="m239 17-67-36 64 47z" fill="#f3fff6" stroke="#f3fff6"/><path d="m226 244-45-98-59 85z" fill="#dee2e1" stroke="#dee2e1"/><path d="m236 28-64-47-1 67z" fill="#f4fff3" stroke="#f4fff3"/><path d="m226 244-104-13 71 38z" fill="#dadbdd" stroke="#dadbdd"/><path d="m224 458-68-49-24 67z" fill="#c9c8c9" stroke="#c9c8c9"/><path d="m215 83-44-35 10 98z" fill="#edfdf0" stroke="#edfdf0"/><path d="m212-75-89 54 49 2z" fill="#f6ffef" stroke="#f6ffef"/><path d="m111 635-65 52 32 100z" fill="#bdbdbb" stroke="#bdbdbb"/><path d="m175 338-33 61 14 10z" fill="#cdccce" stroke="#cdccce"/><path d="m181 146-10-98-69 53z" fill="#ecffea" stroke="#ecffea"/><path d="m193 269-58 13 40 56z" fill="#d4d5d6" stroke="#d4d5d6"/><path d="m203 748-92-113-33 152z" fill="#bdbcbb" stroke="#bdbcbb"/><path d="m205 560-73-84-21 159z" fill="#c3c2c2" stroke="#c3c2c2"/><path d="m203 748-125 39 76 19z" fill="#bcbbba" stroke="#bcbbba"/><path d="m156 409-29 13 5 54z" fill="#c9c8c9" stroke="#c9c8c9"/><path d="m193 269-71-38 13 51z" fill="#d7dad8" stroke="#d7dad8"/><path d="m172-19-49-2 48 69z" fill="#fafff1" stroke="#fafff1"/><path d="m181 146-84 68 25 17z" fill="#dde7dd" stroke="#dde7dd"/><path d="m181 146-79-45-5 113z" fill="#e2f4e1" stroke="#e2f4e1"/><path d="m175 338-110-38 77 99z" fill="#ced0cf" stroke="#ced0cf"/><path d="m175 338-40-56-70 18z" fill="#d1d4d2" stroke="#d1d4d2"/><path d="m171 48-48-69-21 122z" fill="#f9ffef" stroke="#f9ffef"/><path d="m123-21-76 27 55 95z" fill="#ffffef" stroke="#ffffef"/><path d="m132 476h-175l154 159z" fill="#c3c3c1" stroke="#c3c3c1"/><path d="m142 399-103-39 52 54z" fill="#caccca" stroke="#caccca"/><path d="m142 399-77-99-26 60z" fill="#cccfcb" stroke="#cccfcb"/><path d="m156 409-14-10-15 23z" fill="#cbcacb" stroke="#cbcacb"/><path d="m142 399-51 15 36 8z" fill="#cacaca" stroke="#cacaca"/><path d="m102 101-68 18 63 95z" fill="#e1fadc" stroke="#e1fadc"/><path d="m132 476-5-54-36-8z" fill="#c8c8c8" stroke="#c8c8c8"/><path d="m135 282-13-51-57 69z" fill="#d4dad3" stroke="#d4dad3"/><path d="m123-21-119-37 43 64z" fill="#ffffec" stroke="#ffffec"/><path d="m132 476-41-62-134 62z" fill="#c6c7c5" stroke="#c6c7c5"/><path d="m122 231-25-17-32 86z" fill="#d5ddd4" stroke="#d5ddd4"/><path d="m111 635-154-159 89 211z" fill="#bfc0be" stroke="#bfc0be"/><path d="m46 687-89-211-74 105z" fill="#bec0bd" stroke="#bec0bd"/><path d="m97 214-63 14 31 72z" fill="#d3ddd2" stroke="#d3ddd2"/><path d="m97 214-63-95v109z" fill="#d9ebd6" stroke="#d9ebd6"/><path d="m102 101-55-95-13 113z" fill="#efffe3" stroke="#efffe3"/><path d="m91 414-71-28-63 90z" fill="#c6c9c4" stroke="#c6c9c4"/><path d="m78 787-32-100-69 37z" fill="#bbbcb9" stroke="#bbbcb9"/><path d="m78 787-101-63 10 64z" fill="#babbb8" stroke="#babbb8"/><path d="m91 414-52-54-19 26z" fill="#c9ccc8" stroke="#c9ccc8"/><path d="m46 687-163-106-3 47z" fill="#bcbeba" stroke="#bcbeba"/><path d="m47 6-64 19 51 94z" fill="#eeffe0" stroke="#eeffe0"/><path d="m78 787-91 1v23z" fill="#babab8" stroke="#babab8"/><path d="m34 119-51-94 17 93z" fill="#e3ffd9" stroke="#e3ffd9"/><path d="m34 228v-109l-34-1z" fill="#dbf2d5" stroke="#dbf2d5"/><path d="m65 300-65-51 39 111z" fill="#cdd4cc" stroke="#cdd4cc"/><path d="m65 300-31-72-34 21z" fill="#d1dbce" stroke="#d1dbce"/><path d="m-23 724-97-96v12z" fill="#bbbdb9" stroke="#bbbdb9"/><path d="m20 386-73 25 10 65z" fill="#c4c8c3" stroke="#c4c8c3"/><path d="m34 228-34-110v131z" fill="#d5e5d1" stroke="#d5e5d1"/><path d="m39 360-39-111-51 150z" fill="#c9d0c8" stroke="#c9d0c8"/><path d="m46 687-166-59 97 96z" fill="#bcbdba" stroke="#bcbdba"/><path d="m47 6-43-64-21 83z" fill="#f2ffe1" stroke="#f2ffe1"/><path d="m0 249-93 17 42 133z" fill="#c9d1c7" stroke="#c9d1c7"/><path d="m0 249-82 7-11 10z" fill="#cbd6c8" stroke="#cbd6c8"/><path d="m0 249v-131l-90 104z" fill="#d1e2cd" stroke="#d1e2cd"/><path d="m39 360-90 39 71-13z" fill="#c7ccc6" stroke="#c7ccc6"/><path d="m4-58-47 23 26 60z" fill="#e7ffda" stroke="#e7ffda"/><path d="m0 118-96 8 6 96z" fill="#d2e5cd" stroke="#d2e5cd"/><path d="m20 386-71 13-2 12z" fill="#c5cac3" stroke="#c5cac3"/><path d="m-51 399-42-133-27 101z" fill="#c5ccc3" stroke="#c5ccc3"/><path d="m-13 788-10-64-20 63z" fill="#babbb8" stroke="#babbb8"/><path d="m0 118-17-93-76 90z" fill="#dcfbd3" stroke="#dcfbd3"/><path d="m0 249-90-27 8 34z" fill="#ccd8c9" stroke="#ccd8c9"/><path d="m4-58-54-17 7 40z" fill="#e2ffd6" stroke="#e2ffd6"/><path d="m0 118-93-3-3 11z" fill="#d5ecce" stroke="#d5ecce"/><path d="m-90 222-6-96-24 49z" fill="#cdddc8" stroke="#cdddc8"/><path d="m-23 724-97-84v82z" fill="#babcb8" stroke="#babcb8"/><path d="m-17 25-26-60-39 28z" fill="#dfffd5" stroke="#dfffd5"/><path d="m-17 25-65-32-11 122z" fill="#dafad1" stroke="#dafad1"/><path d="m-13 811-30-24-77 35z" fill="#b8b9b6" stroke="#b8b9b6"/><path d="m-13 788-30-1 30 24z" fill="#b9bab7" stroke="#b9bab7"/><path d="m-43 476-10-65-28 31z" fill="#c2c6c1" stroke="#c2c6c1"/><path d="m-103 467-17 8 3 106z" fill="#bfc2bd" stroke="#bfc2bd"/><path d="m-90 222-30-47 14 37z" fill="#cbd9c7" stroke="#cbd9c7"/><path d="m-43 476-60-9-14 114z" fill="#bfc2bd" stroke="#bfc2bd"/><path d="m-23 724-97-2 77 65z" fill="#babbb8" stroke="#babbb8"/><path d="m-93 266-27 11v90z" fill="#c6cec3" stroke="#c6cec3"/><path d="m-51 399-69-32v7z" fill="#c3c9c1" stroke="#c3c9c1"/><path d="m-50-75h-38l23 6z" fill="#d8f8cf" stroke="#d8f8cf"/><path d="m-43 787-77-65v100z" fill="#b9bab6" stroke="#b9bab6"/><path d="m-43 476-38-34-22 25z" fill="#c1c5bf" stroke="#c1c5bf"/><path d="m-43-35-7-40-15 6z" fill="#dcffd2" stroke="#dcffd2"/><path d="m-43-35-22-34-17 62z" fill="#dbfed1" stroke="#dbfed1"/><path d="m-65-69-23-6 6 68z" fill="#d8f7cf" stroke="#d8f7cf"/><path d="m-51 399-65 13 63-1z" fill="#c3c8c1" stroke="#c3c8c1"/><path d="m-51 399-69-25 4 38z" fill="#c3c8c1" stroke="#c3c8c1"/><path d="m-53 411-63 1 35 30z" fill="#c2c7c0" stroke="#c2c7c0"/><path d="m-82-7-6-68h-32z" fill="#d4f0cd" stroke="#d4f0cd"/><path d="m-82-7-38-68 27 190z" fill="#d5f0cd" stroke="#d5f0cd"/><path d="m-82 256-8-34-15 33z" fill="#cad5c6" stroke="#cad5c6"/><path d="m-81 442-35-30 13 55z" fill="#c1c5bf" stroke="#c1c5bf"/><path d="m-82 256-23-1 12 11z" fill="#c9d3c6" stroke="#c9d3c6"/><path d="m-93 115-27 60 24-49z" fill="#cfe1ca" stroke="#cfe1ca"/><path d="m-93 115-27-190v250z" fill="#d1e8cb" stroke="#d1e8cb"/><path d="m-90 222-16-10 1 43z" fill="#cad6c6" stroke="#cad6c6"/><path d="m-103 467-13-55-4 63z" fill="#c0c5be" stroke="#c0c5be"/><path d="m-93 266-12-11-12 9z" fill="#c8d2c5" stroke="#c8d2c5"/><path d="m-93 266-24-2-3 13z" fill="#c7d1c4" stroke="#c7d1c4"/><path d="m-105 255-1-43-11 52z" fill="#c9d4c5" stroke="#c9d4c5"/><path d="m-106 212-14-37 3 89z" fill="#cad6c6" stroke="#cad6c6"/><path d="m-117 264-3-89v102z" fill="#c8d4c5" stroke="#c8d4c5"/><path d="m-116 412-4-38v101z" fill="#c1c6bf" stroke="#c1c6bf"/><path d="m-117 581-3-106v153z" fill="#bdc0bb" stroke="#bdc0bb"/></g></svg>